<!-- Save this content as leaf.svg -->
<svg width="64" height="64" viewBox="0 0 64 64" xmlns="http://www.w3.org/2000/svg" fill="green">
  <path d="M32 2C18.745 2 8 12.745 8 26c0 8.837 7.163 16 16 16h16c13.255 0 24-10.745 24-24C64 12.745 53.255 2 40 2H32zM29.43 50.385C19.8 50.385 9 61 9 61h46s-6.365-15.475-13.91-15.975c-6.705-.453-7.105 3.724-11.66 3.724-4.035 0-5.3-5.15-5.3-5.15s4.125-.47 5.315-2.47c.37-.61.535-1.49.535-1.49s-3.635.225-5.55-1.055C21.44 39.324 20 37.8 20 37.8s.83 1.13 3.6.775c3.55-.445 4.35-3.74 5.83-5.25s2.25-2.63 3.65-3.78c1.4-1.15 2.1-1.9 2.1-1.9s-1.655 4.72-3.755 6.72c-1.22 1.18-3.26 2.23-4.47 2.86-1.22.64-1.78 1.43-1.78 1.43s4.33 2.15 4.88 3.04c.55.89 1.09 2.07 1.09 2.07z"/>
</svg>