<?xml version="1.0" encoding="UTF-8"?>
<svg id="Layer_2" data-name="Layer 2" xmlns="http://www.w3.org/2000/svg" viewBox="0 0 99.1 144.96">
  <defs>
    <style>
      .cls-1 {
        fill: #191617;
        stroke-width: 0px;
      }
    </style>
  </defs>
  <g id="Layer_2-2" data-name="Layer 2">
    <path id="D1" class="cls-1" d="m98.87,87.32c-2.9,31.34-33.07,50.63-45.08,57.12.12-6.7.17-13.53.14-20.5,5.11-3.29,11.18-7.95,17.11-14.41,5.63-6.14,9.55-12.18,12.25-17.1-4.14,4.1-8.99,8.47-14.63,12.85-5.17,4.02-10.17,7.4-14.8,10.23-.08-6.92-.24-13.97-.48-21.13,3.72-2.76,7.92-6.41,12.04-11.15,4.57-5.25,7.75-10.36,9.96-14.55-3.78,3.62-8.53,7.55-14.38,11.23-2.77,1.75-5.46,3.23-8.01,4.5-.3-6.77-.66-13.43-1.09-19.97,2.44-1.9,5.13-4.32,7.77-7.35,3.28-3.78,5.57-7.45,7.15-10.46-1.88,2.35-4.91,5.51-9.4,8.09-2.16,1.24-4.21,2.09-5.99,2.69-.68-9.34-1.46-18.44-2.35-27.28-.83,9-1.56,18.27-2.15,27.81-2.1-.94-4.43-2.16-6.87-3.73-3.91-2.52-6.96-5.23-9.23-7.58,1.58,3.01,3.87,6.68,7.15,10.46,2.91,3.35,5.88,5.94,8.53,7.91-.36,6.6-.66,13.32-.89,20.16-2.49-1.26-5.1-2.72-7.77-4.39-6.29-3.94-11.44-8.16-15.57-12.09,2.2,4.19,5.39,9.3,9.95,14.55,4.52,5.2,9.15,9.09,13.12,11.94-.16,7.29-.24,14.44-.23,21.45-4.82-3.18-9.89-6.77-15.1-10.83-5.81-4.53-11.02-9.03-15.66-13.36,2.7,4.92,6.62,10.96,12.26,17.1,6.48,7.07,13.14,11.98,18.54,15.32.07,6.84.22,13.54.42,20.11C34.39,138.72,1.67,117.78.06,85.53c-1.13-22.67,13.53-42.62,25.53-58.98C34.48,14.45,43.52,5.71,50.11,0c6.42,5.4,15.17,13.66,23.69,25.19,11.25,15.24,27.39,37.07,25.07,62.13Z"/>
  </g>
</svg>