<?xml version="1.0" encoding="UTF-8"?>
<svg id="Layer_2" data-name="Layer 2" xmlns="http://www.w3.org/2000/svg" viewBox="0 0 146.89 146.89">
  <defs>
    <style>
      .cls-1 {
        fill: #191617;
        stroke-width: 0px;
      }
    </style>
  </defs>
  <g id="Layer_2-2" data-name="Layer 2">
    <g id="D3">
      <path class="cls-1" d="m7.83,139.09c20.11-22.94,42.33-45.68,63.85-67.38,21.71-21.54,44.42-43.74,67.38-63.85-20.1,22.94-42.32,45.69-63.85,67.38-21.71,21.54-44.43,43.73-67.38,63.85h0Z"/>
      <path class="cls-1" d="m139.06,139.09c-22.94-20.11-45.68-42.33-67.38-63.85C50.14,53.53,27.94,30.81,7.83,7.85c22.94,20.1,45.69,42.32,67.38,63.85,21.54,21.71,43.73,44.43,63.85,67.38h0Z"/>
      <path class="cls-1" d="m84.68,73.47c-3.26-1.38-5.47-3.28-6.71-4.52s-3.14-3.45-4.52-6.71c-.48,1.47-1.6,4.26-4.17,6.87-2.68,2.72-5.58,3.88-7.06,4.36,1.56.59,4.2,1.83,6.72,4.32,2.63,2.59,3.91,5.34,4.51,6.91.35-1.35,1.3-4.35,4-7.08,2.78-2.82,5.88-3.8,7.23-4.15Z"/>
      <path class="cls-1" d="m8,30.64c6.53-8.53,14.15-16.22,22.64-22.81-6.53,8.54-14.16,16.21-22.64,22.81h0Z"/>
      <path class="cls-1" d="m116.44,139.07c6.53-8.53,14.15-16.22,22.64-22.81-6.53,8.54-14.16,16.21-22.64,22.81h0Z"/>
      <path class="cls-1" d="m139.07,30.64c-8.48-6.6-16.11-14.27-22.64-22.81,8.49,6.59,16.1,14.28,22.64,22.81h0Z"/>
      <path class="cls-1" d="m30.64,139.07c-8.48-6.6-16.11-14.27-22.64-22.81,8.49,6.59,16.1,14.28,22.64,22.81h0Z"/>
      <g>
        <g>
          <path class="cls-1" d="m146.89,46.3c-2.48-1.03-16.11-6.44-31.49,0-15.71,6.58-21.36,20.56-22.3,22.98,2.85,1.12,15.84,5.88,30.64,0,16.06-6.38,22.12-20.47,23.15-22.98Z"/>
          <path class="cls-1" d="m108.62,74.74v2c4.97,0,9.81.92,14.39,2.74,12.58,5,18.79,15.04,21.2,20.01-2.98,1.04-7.62,2.22-13.27,2.22-5.12,0-10.08-.99-14.76-2.95-12.26-5.13-18.14-15.05-20.4-19.97,2.93-.96,7.44-2.05,12.84-2.05v-2m0,0c-7.82,0-13.7,2.17-15.51,2.88.93,2.42,6.58,16.4,22.3,22.98,5.55,2.33,10.88,3.11,15.53,3.11,8.24,0,14.37-2.45,15.96-3.11-1.03-2.51-7.09-16.6-23.15-22.98-5.42-2.15-10.6-2.88-15.13-2.88h0Z"/>
        </g>
        <g>
          <path class="cls-1" d="m15.96,45.19h0c5.12,0,10.08.99,14.76,2.95,12.26,5.13,18.14,15.05,20.4,19.97-2.93.96-7.44,2.05-12.84,2.05-4.98,0-9.82-.92-14.39-2.74-12.58-5-18.79-15.04-21.2-20.01,2.98-1.04,7.62-2.22,13.27-2.22m0-2c-8.24,0-14.37,2.45-15.96,3.11,1.03,2.51,7.09,16.6,23.15,22.98,5.42,2.15,10.6,2.88,15.13,2.88,7.82,0,13.7-2.17,15.51-2.88-.93-2.42-6.58-16.4-22.3-22.98-5.55-2.33-10.88-3.11-15.53-3.11h0Z"/>
          <path class="cls-1" d="m0,100.6c2.48,1.03,16.11,6.44,31.49,0,15.71-6.58,21.36-20.56,22.3-22.98-2.85-1.12-15.84-5.88-30.64,0C7.09,84,1.03,98.09,0,100.6Z"/>
        </g>
      </g>
      <g>
        <g>
          <path class="cls-1" d="m46.3,0c-1.03,2.48-6.44,16.11,0,31.49,6.58,15.71,20.56,21.36,22.98,22.3,1.12-2.85,5.88-15.84,0-30.64C62.9,7.09,48.8,1.03,46.3,0Z"/>
          <path class="cls-1" d="m99.48,2.69c1.74,5.04,4.29,16.04-.73,28.02-5.13,12.26-15.05,18.14-19.97,20.41-1.76-5.35-3.87-15.74.69-27.23,4.99-12.57,15.03-18.79,20-21.19m1.12-2.69c-2.51,1.03-16.6,7.09-22.98,23.15-5.88,14.79-1.12,27.78,0,30.64,2.42-.93,16.4-6.58,22.98-22.3,6.44-15.38,1.03-29.01,0-31.49h0Z"/>
        </g>
        <g>
          <path class="cls-1" d="m68.11,95.77c1.76,5.35,3.87,15.74-.69,27.23-4.99,12.57-15.03,18.79-20,21.19-1.74-5.04-4.29-16.04.73-28.02,5.13-12.26,15.05-18.14,19.97-20.41m1.17-2.67c-2.42.93-16.4,6.58-22.98,22.3-6.44,15.38-1.03,29.01,0,31.49,2.51-1.03,16.6-7.09,22.98-23.15,5.88-14.79,1.12-27.78,0-30.64h0Z"/>
          <path class="cls-1" d="m100.6,146.89c1.03-2.48,6.44-16.11,0-31.49-6.58-15.71-20.56-21.36-22.98-22.3-1.12,2.85-5.88,15.84,0,30.64,6.38,16.06,20.47,22.12,22.98,23.15Z"/>
        </g>
      </g>
    </g>
  </g>
</svg>