<?xml version="1.0" encoding="UTF-8"?>
<svg id="Layer_2" data-name="Layer 2" xmlns="http://www.w3.org/2000/svg" viewBox="0 0 150.22 154.89">
  <defs>
    <style>
      .cls-1 {
        fill: #191617;
        stroke-width: 0px;
      }

      .cls-2 {
        fill: none;
        stroke: #191617;
        stroke-miterlimit: 10;
        stroke-width: 3px;
      }
    </style>
  </defs>
  <g id="Layer_2-2" data-name="Layer 2">
    <g id="D4">
      <path class="cls-1" d="m96.08,68.42l-8.41,8.41,9.06,9.06h53.49v-17.47h-54.14Zm-30.27,30.26v56.21h18.63v-54.94c-3.32-3.31-6.63-6.63-9.95-9.95l-8.68,8.68Zm0-43.71l9.5,9.5,9.13-9.13V0h-18.63v54.97ZM0,68.42v17.47h53.9l8.24-8.24-9.23-9.23H0Z"/>
      <path class="cls-1" d="m129.04,118.2l-32.31-32.31h-12.29v14.06c10.48,10.48,20.95,20.96,31.43,31.43,6.19,6.19,12.38,12.38,18.57,18.57.97-3.41,1.94-6.82,2.9-10.23,3.43-.98,6.85-1.96,10.28-2.94l-18.58-18.58Zm-.66-82.07c6.06-6.08,12.12-12.14,18.19-18.2-3.25-.62-6.5-1.23-9.75-1.84-.87-3.51-1.74-7.01-2.61-10.52l-18.19,18.2-31.58,31.57v13.08h11.64c10.76-10.77,21.53-21.54,32.3-32.29ZM21.6,118.19c-6.36,6.36-12.72,12.72-19.08,19.08,3.7.75,7.4,1.51,11.1,2.26.42,3.37.84,6.73,1.25,10.09l50.94-50.94v-12.79h-11.91c-10.77,10.76-21.54,21.53-32.3,32.3ZM16.05,5.21c-.68,3.63-1.36,7.25-2.04,10.88-3.71.77-7.42,1.53-11.13,2.3l50.03,50.03h12.9v-13.45L16.05,5.21Z"/>
      <path class="cls-2" d="m113.78,77.5l9.08-9.08,18.9-18.91-13.38-13.38-12.36-12.36-12.71-12.71-18.87,18.88-9.11,9.11-27.99-27.99-12.72,12.72-13.17,13.18-12.56,12.55,18.91,18.91,9.08,9.08-8.39,8.39-19.6,19.59,38.45,38.45,18.47-18.46,9.52-9.52,9.11,9.11,18.87,18.87,12.56-12.55,13.17-13.18,12.72-12.72-19.59-19.59-8.39-8.39Zm-29.34,8.39v14.06c-3.32-3.31-6.63-6.63-9.95-9.95l-8.68,8.68v-12.79h-11.91l8.24-8.24-9.23-9.23h12.9v-13.45l9.5,9.5,9.13-9.13v13.08h11.64l-8.41,8.41,9.06,9.06h-12.29Z"/>
    </g>
  </g>
</svg>