<?xml version="1.0" encoding="UTF-8"?>
<svg id="Layer_2" data-name="Layer 2" xmlns="http://www.w3.org/2000/svg" viewBox="0 0 147.58 147.59">
  <defs>
    <style>
      .cls-1 {
        fill: #191617;
        stroke-width: 0px;
      }
    </style>
  </defs>
  <g id="Layer_2-2" data-name="Layer 2">
    <g id="D5">
      <polygon class="cls-1" points="116.69 100.99 116.69 77 100.99 77 100.99 100.49 77.5 100.49 77.5 116.69 100.99 116.69 73.64 147.59 46.6 116.69 70.09 116.69 70.09 100.49 46.6 100.49 46.6 77 30.9 77 30.9 100.99 0 73.94 30.9 46.6 30.9 69.59 46.6 69.59 46.6 46.1 70.09 46.1 70.09 30.9 46.6 30.9 73.64 0 100.99 30.9 77.5 30.9 77.5 46.1 100.99 46.1 100.99 69.59 116.69 69.59 116.69 46.6 147.58 73.94 116.69 100.99"/>
    </g>
  </g>
</svg>