<?xml version="1.0" encoding="UTF-8"?>
<svg id="Layer_2" data-name="Layer 2" xmlns="http://www.w3.org/2000/svg" viewBox="0 0 138.95 138.63">
  <defs>
    <style>
      .cls-1 {
        fill: #191617;
        stroke-width: 0px;
      }
    </style>
  </defs>
  <g id="Layer_2-2" data-name="Layer 2">
    <g id="D6">
      <rect class="cls-1" x="54.32" y="54.26" width="30.38" height="30.38"/>
      <circle class="cls-1" cx="88.5" cy="50.45" r="5.39"/>
      <circle class="cls-1" cx="88.5" cy="88.48" r="5.39"/>
      <circle class="cls-1" cx="50.56" cy="50.45" r="5.39"/>
      <circle class="cls-1" cx="50.56" cy="88.48" r="5.39"/>
      <path class="cls-1" d="m138.95,0c-.46,3.27-1.27,6.34-2.23,9.41-2.02,1.87-3.9,3.88-5.85,5.81-5.8,5.83-17.45,17.57-23.25,23.4,0,0-5.81,5.85-5.81,5.85-2.99.93-6.24,1.8-9.36,2.32.5-3.12,1.36-6.38,2.27-9.37,0,0,5.81-5.85,5.81-5.85,5.8-5.83,17.46-17.57,23.25-23.4,1.92-1.97,3.91-3.86,5.77-5.89,3.06-.98,6.13-1.8,9.4-2.29h0Z"/>
      <path class="cls-1" d="m46.5,46.79c-3.27-.48-6.33-1.31-9.4-2.29-1.86-2.03-3.85-3.92-5.77-5.89-5.79-5.83-17.46-17.56-23.25-23.4,0,0-5.81-5.85-5.81-5.85C1.36,6.38.5,3.12,0,0c3.12.52,6.37,1.4,9.36,2.32,0,0,5.81,5.85,5.81,5.85,5.79,5.83,17.46,17.57,23.25,23.4,1.95,1.93,3.84,3.94,5.85,5.81.96,3.07,1.76,6.14,2.23,9.41h0Z"/>
      <path class="cls-1" d="m138.95,138.63c-3.27-.48-6.33-1.31-9.4-2.29-1.86-2.03-3.85-3.92-5.77-5.89-5.79-5.83-17.46-17.56-23.25-23.4,0,0-5.81-5.85-5.81-5.85-.91-2.99-1.76-6.25-2.27-9.37,3.12.52,6.37,1.4,9.36,2.32,0,0,5.81,5.85,5.81,5.85,5.79,5.83,17.46,17.57,23.25,23.4,1.95,1.93,3.84,3.94,5.85,5.81.96,3.07,1.76,6.14,2.23,9.41h0Z"/>
      <path class="cls-1" d="m46.5,91.84c-.46,3.27-1.27,6.34-2.23,9.41-2.02,1.87-3.9,3.88-5.85,5.81-5.8,5.83-17.45,17.57-23.25,23.4,0,0-5.81,5.85-5.81,5.85-2.99.93-6.24,1.8-9.36,2.32.5-3.12,1.36-6.38,2.27-9.37,0,0,5.81-5.85,5.81-5.85,5.8-5.83,17.46-17.57,23.25-23.4,1.92-1.97,3.91-3.86,5.77-5.89,3.06-.98,6.13-1.8,9.4-2.29h0Z"/>
    </g>
  </g>
</svg>